<?xml version="1.0" encoding="utf-8"?>
<svg xmlns="http://www.w3.org/2000/svg" fill="none" height="100%" overflow="visible" preserveAspectRatio="none" style="display: block;" viewBox="0 0 36 31" width="100%">
<g id="Vector">
<path d="M32.7835 17.9406C32.5537 17.9406 32.3448 17.9022 32.1533 17.8255C31.9618 17.7488 31.7982 17.6372 31.6589 17.4976C31.5196 17.3581 31.4117 17.1907 31.3351 16.9989C31.2585 16.8071 31.2202 16.5978 31.2202 16.3746C31.2202 16.1514 31.2585 15.9387 31.3351 15.7503C31.4117 15.5585 31.5196 15.3946 31.6589 15.2551C31.7982 15.1156 31.9618 15.0074 32.1533 14.9307C32.3448 14.854 32.5537 14.8156 32.7835 14.8156C33.0133 14.8156 33.2187 14.854 33.4067 14.9307C33.5947 15.0074 33.7618 15.1156 33.9046 15.2551C34.0438 15.3946 34.1552 15.5585 34.2318 15.7503C34.3084 15.9421 34.3467 16.1514 34.3467 16.3746C34.3467 16.5978 34.3084 16.8106 34.2318 17.0024C34.1552 17.1942 34.0438 17.3616 33.9046 17.5011C33.7653 17.6406 33.5982 17.7488 33.4067 17.8255C33.2152 17.9022 33.0063 17.9406 32.7835 17.9406ZM32.78 17.672C33.0272 17.672 33.2431 17.6162 33.4345 17.5011C33.6226 17.3895 33.7723 17.2326 33.8837 17.0373C33.9951 16.842 34.0473 16.6188 34.0473 16.3711C34.0473 16.1235 33.9916 15.9003 33.8837 15.705C33.7723 15.5097 33.626 15.3562 33.4345 15.2446C33.2431 15.133 33.0307 15.0772 32.7869 15.0772C32.5432 15.0772 32.3239 15.133 32.1324 15.2446C31.9409 15.3562 31.7912 15.5097 31.6833 15.7015C31.5753 15.8968 31.5196 16.12 31.5196 16.3711C31.5196 16.6222 31.5753 16.842 31.6833 17.0373C31.7912 17.2326 31.9409 17.386 32.1324 17.5011C32.3239 17.6127 32.5398 17.672 32.7835 17.672H32.78ZM32.0871 17.2779V15.4574H32.975C33.1665 15.4574 33.3092 15.5097 33.4067 15.6108C33.5042 15.712 33.5529 15.8445 33.5529 16.0084C33.5529 16.127 33.5251 16.2281 33.4728 16.3153C33.4206 16.4025 33.351 16.4758 33.2674 16.5316L33.6365 17.2744H33.1247L32.8357 16.6083H32.5502V17.2744H32.0837L32.0871 17.2779ZM32.5537 16.2665H32.867C32.9297 16.2665 32.9784 16.2456 33.0202 16.2037C33.062 16.1619 33.0829 16.1061 33.0829 16.0398C33.0829 15.9735 33.062 15.9142 33.0237 15.8759C32.9854 15.8375 32.9332 15.8166 32.867 15.8166H32.5537V16.27V16.2665Z" fill="#FFFFFF"/>
<path d="M9.07325 30.1091C9.07325 30.6915 8.36647 30.981 7.95563 30.5694L0.442173 24.3509C0.198456 24.1068 0.0591885 23.772 0.0591885 23.4232L0 9.32952C0 8.95634 0.299424 8.65291 0.671964 8.65291H7.15136C8.23417 8.65291 9.11503 7.77402 9.11503 6.68586V0.67312C9.11503 0.303427 9.41445 0 9.78699 0H28.3026C28.6507 0 28.985 0.139507 29.2322 0.387131L35.1893 7.40432C35.6106 7.82633 35.3146 8.54828 34.7193 8.55177L11.0717 8.63896C9.98893 8.64245 9.11503 9.52134 9.11503 10.606V13.2531C9.11503 13.9786 9.69995 14.5645 10.4241 14.5645H27.8151C28.1842 14.5645 28.4871 14.8645 28.4871 15.2376V22.4013C28.4871 22.771 28.1877 23.0744 27.8151 23.0744H17.1055C16.7573 23.0744 16.4231 22.9349 16.1759 22.6873L11.3503 16.8036C10.5251 15.977 9.11503 16.5629 9.11503 17.7313L9.07673 30.116L9.07325 30.1091Z" fill="#FFFFFF"/>
</g>
</svg>